Coordinates
version=1
nRows=19
nColumns=63
inDegrees=yes

Units are S.I. units (second, meters, Newtons, ...)
If the header above contains a line with 'inDegrees', this indicates whether rotational values are in degrees (yes) or radians (no).

endheader
time	pelvis_tilt	pelvis_list	pelvis_rotation	pelvis_tx	pelvis_ty	pelvis_tz	hip_flexion_r	hip_adduction_r	hip_rotation_r	knee_angle_r	knee_angle_r_beta	ankle_angle_r	subtalar_angle_r	mtp_angle_r	hip_flexion_l	hip_adduction_l	hip_rotation_l	knee_angle_l	knee_angle_l_beta	ankle_angle_l	subtalar_angle_l	mtp_angle_l	L5_S1_Flex_Ext	L5_S1_Lat_Bending	L5_S1_axial_rotation	L4_L5_Flex_Ext	L4_L5_Lat_Bending	L4_L5_axial_rotation	L3_L4_Flex_Ext	L3_L4_Lat_Bending	L3_L4_axial_rotation	L2_L3_Flex_Ext	L2_L3_Lat_Bending	L2_L3_axial_rotation	L1_L2_Flex_Ext	L1_L2_Lat_Bending	L1_L2_axial_rotation	L1_T12_Flex_Ext	L1_T12_Lat_Bending	L1_T12_axial_rotation	Abs_r3	Abs_r2	Abs_r1	Abs_t1	Abs_t2	neck_flexion	neck_bending	neck_rotation	arm_flex_r	arm_add_r	arm_rot_r	elbow_flex_r	pro_sup_r	wrist_flex_r	wrist_dev_r	arm_flex_l	arm_add_l	arm_rot_l	elbow_flex_l	pro_sup_l	wrist_flex_l	wrist_dev_l
2.559322	-5.688199	-7.674871	82.158803	0.232808	0.931175	0.574493	13.562550	-5.232656	-5.413987	12.874777	0.224707	22.196794	15.085615	0.000000	10.533795	3.622639	1.125261	4.783590	0.083489	12.710104	-12.011114	0.000000	-0.057609	-1.231699	0.755273	-0.106985	-1.638160	0.802477	-0.094645	-2.994754	0.802477	-0.065841	-2.994754	0.660864	-0.053495	-2.511681	0.613659	-0.032918	-1.907902	0.566455	-0.411492	-13.933228	4.200600	0.000000	0.000000	17.264892	9.060073	-13.774056	22.652376	3.279801	6.209524	145.623526	88.958220	-6.062229	7.088665	22.076196	-6.069441	188.006775	1.222799	23.808445	-13.362477	1.889001
2.576271	-5.619919	-7.741941	82.100126	0.232895	0.931107	0.574448	13.642827	-5.138906	-5.483043	12.903560	0.225210	22.167236	15.140301	0.000000	10.671544	3.510350	0.773818	5.005246	0.087358	13.006938	-11.536221	0.000000	-0.055883	-1.236650	0.804937	-0.103780	-1.644745	0.855246	-0.091810	-3.006791	0.855246	-0.063868	-3.006791	0.704320	-0.051893	-2.521777	0.654012	-0.031931	-1.915571	0.603703	-0.399164	-13.989235	4.476821	0.000000	0.000000	17.307923	9.291397	-13.568460	22.526544	3.119804	5.878776	145.754786	88.939911	-6.043673	7.021887	22.163818	-5.991782	188.216926	1.217181	24.639734	-13.259024	1.825943
2.593220	-5.521553	-7.807412	82.065920	0.232905	0.930992	0.574409	13.710010	-5.022752	-5.608365	12.921734	0.225527	22.144679	15.225697	0.000000	10.792083	3.378138	0.609911	5.202280	0.090797	13.264895	-11.279965	0.000000	-0.055682	-1.235413	0.843942	-0.103406	-1.643099	0.896688	-0.091479	-3.003783	0.896688	-0.063639	-3.003783	0.738449	-0.051706	-2.519254	0.685703	-0.031816	-1.913655	0.632956	-0.397728	-13.975239	4.693751	0.000000	0.000000	17.368151	9.456723	-13.269487	22.477231	2.931491	5.679192	145.753992	88.921033	-6.254419	6.818452	22.251302	-5.895450	188.483368	1.222604	25.218302	-13.083622	1.736954
2.610169	-5.403728	-7.870760	82.022113	0.232884	0.930842	0.574407	13.776893	-4.886624	-5.739037	12.937632	0.225804	22.121096	15.319844	0.000000	10.902468	3.223238	0.405426	5.387467	0.094029	13.562934	-10.948531	0.000000	-0.057330	-1.229376	0.878959	-0.106467	-1.635070	0.933894	-0.094187	-2.989104	0.933894	-0.065522	-2.989104	0.769089	-0.053236	-2.506943	0.714154	-0.032758	-1.904303	0.659219	-0.409501	-13.906943	4.888504	0.000000	0.000000	17.456020	9.535262	-12.929432	22.497524	2.739081	5.536356	145.644813	88.902628	-6.507625	6.696983	22.342694	-5.785940	188.591505	1.226381	25.632882	-12.777148	1.598605
2.627119	-5.268783	-7.931444	81.980662	0.232819	0.930673	0.574419	13.838285	-4.734833	-5.869424	12.946159	0.225953	22.091195	15.409111	0.000000	10.993814	3.056755	0.275877	5.541669	0.096720	13.838745	-10.703343	0.000000	-0.060299	-1.218470	0.907631	-0.111981	-1.620565	0.964358	-0.099065	-2.962588	0.964358	-0.068916	-2.962588	0.794177	-0.055994	-2.484704	0.737450	-0.034455	-1.887410	0.680723	-0.430710	-13.783575	5.047970	0.000000	0.000000	17.551632	9.503966	-12.550634	22.569336	2.558934	5.451716	145.435434	88.883393	-6.804833	6.709217	22.430561	-5.666365	188.602797	1.220037	25.807386	-12.386862	1.426042
2.644068	-5.120087	-7.988396	81.937823	0.232719	0.930505	0.574436	13.890186	-4.568922	-5.977023	12.940494	0.225854	22.048308	15.477602	0.000000	11.062913	2.881563	0.215641	5.658620	0.098762	14.078213	-10.547227	0.000000	-0.064297	-1.203380	0.931207	-0.119406	-1.600496	0.989408	-0.105633	-2.925899	0.989408	-0.073485	-2.925899	0.814806	-0.059706	-2.453933	0.756606	-0.036739	-1.864036	0.698405	-0.459266	-13.612880	5.179095	0.000000	0.000000	17.637011	9.364915	-12.153487	22.667363	2.396067	5.429461	145.144964	88.863572	-7.171263	6.852032	22.513491	-5.539680	188.440133	1.204781	25.847014	-11.975431	1.236123
2.661017	-4.962333	-8.038024	81.912745	0.232571	0.930355	0.574435	13.924229	-4.399430	-6.086464	12.919848	0.225494	21.996964	15.538495	0.000000	11.101073	2.709007	0.296983	5.723233	0.099889	14.246417	-10.560569	0.000000	-0.069357	-1.185070	0.948508	-0.128802	-1.576143	1.007789	-0.113946	-2.881379	1.007789	-0.079268	-2.881379	0.829944	-0.064405	-2.416595	0.770662	-0.039630	-1.835674	0.711381	-0.495407	-13.405750	5.275315	0.000000	0.000000	17.688887	9.128476	-11.746131	22.763789	2.262143	5.432049	144.791531	88.843879	-7.506476	7.090028	22.592941	-5.408170	188.138522	1.176337	25.785900	-11.560349	1.041762
2.677966	-4.802287	-8.087089	81.893105	0.232387	0.930219	0.574408	13.948564	-4.231405	-6.202623	12.883990	0.224868	21.936923	15.613745	0.000000	11.121237	2.538882	0.391587	5.748844	0.100336	14.395316	-10.577577	0.000000	-0.073513	-1.164571	0.964721	-0.136520	-1.548880	1.025016	-0.120774	-2.831539	1.025016	-0.084018	-2.831539	0.844131	-0.068264	-2.374794	0.783836	-0.042005	-1.803921	0.723541	-0.525094	-13.173865	5.365490	0.000000	0.000000	17.679507	8.791901	-11.364402	22.840211	2.135539	5.484703	144.416408	88.825837	-7.933327	7.396148	22.667117	-5.270165	187.752855	1.142624	25.611842	-11.219157	0.872729
2.694915	-4.646016	-8.132148	81.869169	0.232183	0.930102	0.574347	13.961515	-4.065867	-6.265558	12.834117	0.223998	21.869558	15.649160	0.000000	11.115958	2.380021	0.552321	5.723286	0.099890	14.483057	-10.708287	0.000000	-0.076367	-1.142862	0.981210	-0.141820	-1.520006	1.042536	-0.125463	-2.778754	1.042536	-0.087279	-2.778754	0.858559	-0.070914	-2.330523	0.797233	-0.043636	-1.770293	0.735908	-0.545478	-12.928279	5.457197	0.000000	0.000000	17.599849	8.387918	-10.990534	22.887979	2.016228	5.569852	144.031765	88.810994	-8.366629	7.682839	22.734459	-5.129950	187.258782	1.106706	25.368646	-10.928162	0.728145
2.711864	-4.497260	-8.168645	81.865953	0.231940	0.930016	0.574248	13.952242	-3.915795	-6.339382	12.767407	0.222833	21.803467	15.691963	0.000000	11.087039	2.240120	0.775806	5.657142	0.098736	14.519571	-10.915895	0.000000	-0.078076	-1.121181	0.994022	-0.144995	-1.491171	1.056148	-0.128271	-2.726040	1.056148	-0.089233	-2.726040	0.869769	-0.072501	-2.286313	0.807643	-0.044613	-1.736710	0.745516	-0.557689	-12.683025	5.528451	0.000000	0.000000	17.435502	7.938463	-10.649450	22.899280	1.900490	5.666134	143.652375	88.799616	-8.740708	7.880745	22.796809	-4.991892	186.689362	1.073433	25.065604	-10.654485	0.597547
2.728814	-4.363805	-8.198540	81.878820	0.231669	0.929963	0.574124	13.928296	-3.785379	-6.392303	12.691161	0.221503	21.739409	15.710178	0.000000	11.044819	2.123830	1.028998	5.562020	0.097076	14.507647	-11.164283	0.000000	-0.077782	-1.101137	1.004128	-0.144449	-1.464513	1.066886	-0.127788	-2.677306	1.066886	-0.088897	-2.677306	0.878612	-0.072229	-2.245440	0.815854	-0.044445	-1.705662	0.753096	-0.555590	-12.456288	5.584660	0.000000	0.000000	17.198884	7.468861	-10.363406	22.863226	1.779440	5.780822	143.286665	88.793797	-9.084507	7.885025	22.853257	-4.860069	186.064436	1.045493	24.694413	-10.360423	0.480017
2.745763	-4.253640	-8.219971	81.909026	0.231373	0.929948	0.573986	13.890412	-3.686896	-6.464062	12.610094	0.220088	21.686173	15.747853	0.000000	10.996754	2.038795	1.276290	5.453161	0.095176	14.444536	-11.420450	0.000000	-0.075612	-1.084234	1.012858	-0.140419	-1.442032	1.076162	-0.124223	-2.636207	1.076162	-0.086417	-2.636207	0.886251	-0.070213	-2.210971	0.822947	-0.043205	-1.679479	0.759644	-0.540087	-12.265076	5.633215	0.000000	0.000000	16.917770	7.017017	-10.143973	22.766541	1.653293	5.897173	142.955423	88.792712	-9.385693	7.697028	22.909037	-4.736187	185.529520	1.026317	24.195185	-10.058458	0.364589
2.762712	-4.169763	-8.231565	81.946410	0.231071	0.929964	0.573861	13.847178	-3.620450	-6.535224	12.537443	0.218820	21.647275	15.788962	0.000000	10.953505	1.982985	1.469595	5.351868	0.093408	14.350203	-11.636741	0.000000	-0.071739	-1.071112	1.019787	-0.133226	-1.424579	1.083524	-0.117860	-2.604301	1.083524	-0.081990	-2.604301	0.892314	-0.066617	-2.184211	0.828577	-0.040992	-1.659152	0.764840	-0.512423	-12.116631	5.671750	0.000000	0.000000	16.633080	6.618625	-9.980526	22.615369	1.536466	5.990065	142.673892	88.796146	-9.578744	7.428028	22.960266	-4.628295	185.004622	1.015958	23.667710	-9.756464	0.227412
2.779661	-4.113317	-8.228325	81.986139	0.230783	0.930018	0.573758	13.791699	-3.587592	-6.632491	12.468046	0.217608	21.623461	15.870219	0.000000	10.915924	1.955368	1.576448	5.270815	0.091993	14.232291	-11.784649	0.000000	-0.067036	-1.062281	1.024813	-0.124493	-1.412834	1.088863	-0.110134	-2.582830	1.088863	-0.076616	-2.582830	0.896711	-0.062250	-2.166203	0.832660	-0.038305	-1.645473	0.768609	-0.478834	-12.016735	5.699700	0.000000	0.000000	16.374782	6.328919	-9.839456	22.418698	1.431198	6.071613	142.454373	88.805854	-9.733436	7.142118	23.007192	-4.542765	184.564318	1.016746	23.136750	-9.511728	0.066449
2.796610	-4.078635	-8.214057	82.030295	0.230477	0.930085	0.573695	13.738301	-3.578783	-6.692693	12.422405	0.216812	21.626637	15.902732	0.000000	10.900323	1.950671	1.625030	5.236792	0.091399	14.127521	-11.866603	0.000000	-0.061307	-1.056251	1.023834	-0.113854	-1.404814	1.087823	-0.100722	-2.568168	1.087823	-0.070068	-2.568168	0.895855	-0.056930	-2.153907	0.831865	-0.035031	-1.636133	0.767875	-0.437913	-11.948522	5.694256	0.000000	0.000000	16.166020	6.141002	-9.675230	22.210396	1.331059	6.176157	142.268910	88.814701	-9.889705	6.767183	23.033649	-4.480670	184.171911	1.016627	22.623385	-9.349753	-0.104349
2.813559	-4.057520	-8.184330	82.089851	0.230158	0.930170	0.573669	13.672351	-3.592899	-6.808405	12.388181	0.216215	21.646376	15.978918	0.000000	10.899134	1.960387	1.605051	5.247049	0.091578	14.056169	-11.842358	0.000000	-0.056092	-1.052624	1.014177	-0.104168	-1.399990	1.077563	-0.092154	-2.559350	1.077563	-0.064108	-2.559350	0.887405	-0.052087	-2.146511	0.824019	-0.032051	-1.630514	0.760632	-0.400660	-11.907493	5.640546	0.000000	0.000000	16.027979	6.096431	-9.472514	22.015899	1.247595	6.286114	142.122328	88.825909	-10.020974	6.386867	23.038791	-4.447452	183.812445	1.023061	22.225121	-9.341159	-0.275414
2.830508	-4.061611	-8.143718	82.143347	0.229870	0.930255	0.573662	13.597823	-3.629170	-6.896607	12.354542	0.215627	21.676511	16.024417	0.000000	10.912768	1.989883	1.488684	5.294232	0.092402	14.027744	-11.688179	0.000000	-0.050447	-1.053474	1.002285	-0.093684	-1.401120	1.064928	-0.082879	-2.561416	1.064928	-0.057655	-2.561416	0.877000	-0.046845	-2.148244	0.814357	-0.028825	-1.631831	0.751714	-0.360334	-11.917106	5.574410	0.000000	0.000000	15.962836	6.213158	-9.267465	21.849166	1.198350	6.365399	142.011377	88.840390	-10.077745	6.010376	23.018763	-4.451173	183.462936	1.035953	21.974275	-9.521651	-0.435921
2.847458	-4.089006	-8.094388	82.203325	0.229607	0.930327	0.573628	13.509434	-3.690136	-7.010200	12.316762	0.214968	21.719658	16.085826	0.000000	10.942693	2.038555	1.296292	5.384607	0.093979	14.060530	-11.404399	0.000000	-0.044082	-1.058814	0.987615	-0.081865	-1.408222	1.049341	-0.072423	-2.574400	1.049341	-0.050382	-2.574400	0.864163	-0.040935	-2.159133	0.802437	-0.025189	-1.640103	0.740711	-0.314875	-11.977514	5.492818	0.000000	0.000000	15.976769	6.491299	-9.086282	21.726691	1.166961	6.411740	141.930524	88.859232	-10.071871	5.631946	22.973008	-4.487143	183.229806	1.057305	21.831884	-9.904704	-0.544795
2.864407	-4.108645	-8.032647	82.243266	0.229389	0.930363	0.573598	13.406556	-3.735913	-7.090576	12.279895	0.214325	21.765475	16.129340	0.000000	10.984470	2.069714	0.991668	5.526395	0.096454	14.192897	-10.984683	0.000000	-0.039224	-1.063015	0.972928	-0.072843	-1.413810	1.033736	-0.064441	-2.584616	1.033736	-0.044829	-2.584616	0.851312	-0.036424	-2.167701	0.790504	-0.022413	-1.646611	0.729696	-0.280174	-12.025042	5.411132	0.000000	0.000000	16.050361	6.851173	-8.853266	21.704643	1.129343	6.455286	141.865619	88.882585	-9.973622	5.301133	22.910240	-4.531968	183.112072	1.083748	21.838284	-10.426048	-0.573014
